<?xml version="1.0" encoding="UTF-8"?><svg id="Layer_1" xmlns="http://www.w3.org/2000/svg" viewBox="0 0 351.13 104.73"><defs><style>.cls-1,.cls-2,.cls-3{stroke-width:0px;}.cls-1,.cls-4{fill:#ee322e;}.cls-2{fill:#ed1c24;}.cls-5{letter-spacing:0em;}.cls-4,.cls-6{font-family:NittiEindhoven-ExtraBold, 'Nitti Eindhoven';font-size:31.86px;font-weight:700;}.cls-7{letter-spacing:0em;}.cls-8{letter-spacing:0em;}.cls-9{letter-spacing:0em;}.cls-3,.cls-6{fill:#231f20;}.cls-10{letter-spacing:0em;}.cls-11{letter-spacing:0em;}.cls-12{letter-spacing:.01em;}.cls-13{letter-spacing:-.04em;}</style></defs><text class="cls-4" transform="translate(13.84 90.03) scale(1.04 1)"><tspan class="cls-13" x="0" y="0">Y</tspan><tspan class="cls-9" x="16.25" y="0">ou</tspan><tspan class="cls-10" x="50.18" y="0">r</tspan><tspan class="cls-9" x="61.56" y="0" xml:space="preserve"> plac</tspan><tspan class="cls-8" x="126.88" y="0">e</tspan><tspan class="cls-9" x="142.84" y="0" xml:space="preserve"> in B</tspan><tspan class="cls-5" x="201.27" y="0">r</tspan><tspan class="cls-7" x="212.78" y="0">ainpo</tspan><tspan class="cls-12" x="288.83" y="0">r</tspan><tspan class="cls-11" x="300.75" y="0">t</tspan></text><text class="cls-6" transform="translate(13.84 90.03) scale(1.04 1)"><tspan class="cls-13" x="0" y="0">Y</tspan><tspan class="cls-9" x="16.25" y="0">ou</tspan><tspan class="cls-10" x="50.18" y="0">r</tspan><tspan class="cls-9" x="61.56" y="0" xml:space="preserve"> plac</tspan><tspan class="cls-8" x="126.88" y="0">e</tspan><tspan class="cls-9" x="142.84" y="0" xml:space="preserve"> in B</tspan><tspan class="cls-5" x="201.27" y="0">r</tspan><tspan class="cls-7" x="212.78" y="0">ainpo</tspan><tspan class="cls-12" x="288.83" y="0">r</tspan><tspan class="cls-11" x="300.75" y="0">t</tspan></text><path class="cls-3" d="m13.84,7.69h16.09c15.52,0,22.87,9.23,22.87,22.99s-7.35,22.99-22.87,22.99H13.84V7.69Zm15.92,37.41c10.1,0,12.45-7.42,12.45-14.42s-2.34-14.42-12.45-14.42h-5.66v28.84h5.66Z"/><path class="cls-3" d="m57.34,13.33h10.76v39.47h-10.76V13.33Z"/><path class="cls-3" d="m83.41,40.05c.17,3.73,3.29,6.25,7.8,6.25,3.56,0,6.07-1.56,6.07-4.34,0-3.64-4.34-3.82-11.53-5.81-5.2-1.47-11.45-3.82-11.45-11.36,0-8.59,7.98-11.63,15.87-11.63,8.85,0,15.7,3.9,16.31,12.14h-10.58c-.17-2.95-2.52-4.94-5.98-4.94-2.78,0-4.94,1.3-4.94,3.64,0,3.56,4.94,3.73,11.62,5.55,5.72,1.56,11.36,4.16,11.36,11.63,0,9.2-8.59,12.32-16.91,12.32-9.98,0-17.52-4.43-18.22-13.45h10.58Z"/><path class="cls-3" d="m147.77,38.49c-.69,9.8-7.72,15.18-17.61,15.18-8.85,0-19.17-4.43-19.17-20.21s10.32-20.13,19.17-20.13c9.89,0,16.91,5.38,17.61,15.18h-10.58c-.17-3.55-2.6-6.42-7.11-6.42-5.47,0-8.15,3.99-8.15,11.36s2.69,11.45,8.15,11.45c4.51,0,6.94-2.86,7.11-6.42h10.58Z"/><path class="cls-3" d="m263.43,39.19c-1.46,10.2-10.44,12.95-17.08,12.95-8.66,0-17.56-4.61-17.56-18.86s9.15-18.78,17.4-18.78,17.4,4.05,17.4,18.78v1.46h-25.01c.16,6.64,2.99,9.88,8.01,9.88,4.05,0,6.55-2.02,7.12-5.42h9.71Zm-9.79-9.88c-.57-5.02-3.16-7.53-7.44-7.53s-6.88,2.51-7.45,7.53h14.89Z"/><path class="cls-3" d="m271.43,15.31h8.9v4.94c1.86-3.56,4.94-5.75,9.47-5.75,2.51,0,3.8.57,4.29.81v8.58c-1.38-.65-3.08-1.05-5.18-1.05-3.48,0-5.99,1.05-7.45,2.91v25.58h-10.03V15.31Z"/><path class="cls-2" d="m298.51,7.69h10.28v27.04c0,7.37,2.91,10.04,9.15,10.04s9.15-2.67,9.15-10.04V7.69h10.28v28.09c0,12.55-7.36,17.89-19.42,17.89s-19.42-5.34-19.42-17.89V7.69Z"/><path class="cls-1" d="m188.74,34.98c-.02.07-.06.13-.06.2-.04,1.27-.32,2.51-.68,3.72-.56,1.89-1.39,3.66-2.5,5.29-.38.56-.81,1.09-1.24,1.63-.95,1.19-2.08,2.17-3.29,3.09-1.86,1.41-3.93,2.34-6.16,3-1.21.36-2.44.57-3.68.66-.96.07-1.92.06-2.88-.02-.85-.08-1.69-.17-2.52-.37-1.3-.32-2.57-.72-3.79-1.28-.93-.42-1.84-.89-2.67-1.49-.83-.61-1.64-1.26-2.41-1.94-1.34-1.17-2.41-2.58-3.33-4.09-1.01-1.66-1.75-3.45-2.2-5.34-.29-1.2-.49-2.4-.52-3.64-.01-.45-.05-.9-.04-1.35.04-1.7.26-3.36.73-5,.63-2.22,1.63-4.26,2.98-6.14.83-1.14,1.79-2.14,2.82-3.09,1.41-1.29,3.02-2.24,4.73-3.06,1.66-.8,3.42-1.25,5.23-1.51.4-.06.8-.07,1.2-.11.07,0,.13-.04.19-.07.76,0,1.51,0,2.27,0,.05.02.1.06.16.06.48.05.97.09,1.45.16,1.74.24,3.42.71,5.01,1.46,1.72.81,3.34,1.78,4.75,3.08,1.03.95,1.99,1.95,2.82,3.09,1.35,1.86,2.35,3.89,2.96,6.1.32,1.14.59,2.28.62,3.47,0,.07.04.13.06.2v3.29Zm-19.03-9.31c-4.07-.03-7.54,3.32-7.55,7.64-.01,4.33,3.41,7.71,7.55,7.73,4.22.03,7.51-3.43,7.64-7.46.14-4.36-3.41-8.01-7.64-7.91Z"/><path class="cls-1" d="m228.79,15.52c-.22.39-.45.78-.66,1.17-1.12,2.08-2.24,4.15-3.35,6.23-1.09,2.03-2.18,4.07-3.28,6.11-.85,1.58-1.72,3.16-2.57,4.75-1,1.85-1.99,3.71-2.98,5.56-.74,1.37-1.48,2.74-2.22,4.11-.44.82-.88,1.65-1.32,2.48-.58,1.08-1.17,2.16-1.75,3.24-.34.62-.67,1.24-1,1.86-.03.05-.07.1-.12.17-.29-.52-.58-1.01-.85-1.51-.85-1.59-1.69-3.18-2.54-4.77-1-1.88-2.02-3.75-3.03-5.62-.76-1.41-1.53-2.82-2.29-4.23-.24-.44-.47-.88-.7-1.32-.91-1.69-1.83-3.38-2.74-5.07-.99-1.84-1.97-3.69-2.97-5.53-.85-1.58-1.71-3.16-2.57-4.75-.44-.81-.89-1.62-1.33-2.43-.07-.14-.14-.28-.23-.48.16,0,.28-.02.41-.02,1.52,0,3.05,0,4.57,0,2.57,0,5.14,0,7.71,0,.28,0,.46.06.6.34.74,1.43,1.5,2.84,2.26,4.25.63,1.17,1.27,2.33,1.9,3.49.35.65.69,1.31,1.05,1.96.24.43.49.86.77,1.33.15-.27.28-.5.41-.73.65-1.21,1.28-2.43,1.94-3.64,1.03-1.91,2.06-3.81,3.09-5.71.19-.35.4-.69.59-1.05.09-.18.21-.25.4-.23.1.01.19,0,.29,0,4.01,0,8.02,0,12.02,0,.17,0,.34,0,.51-.01v.07Z"/></svg>